<svg id="Layer_1" data-name="Layer 1" xmlns="http://www.w3.org/2000/svg" viewBox="0 0 49 48"><defs><style>.cls-1{fill:#3056d3;}.cls-2{fill:#fff;}</style></defs><title>faviconriverblue</title><path class="cls-1" d="M24.5,48A24,24,0,1,0,.5,24,24,24,0,0,0,24.5,48Z"/><path class="cls-2" d="M25.8,46.16l-4-3.94H31l-4,3.94A.85.85,0,0,1,25.8,46.16Z"/><path class="cls-2" d="M33.66,39.5H19.33a.35.35,0,0,1-.22-.08h0c-.64-.52-4.12-3.56-3.78-8.22.47-4,3.4-5.85,5.87-7.72a13.85,13.85,0,0,0,3.48-3.8,7.8,7.8,0,0,0,1.28-4,10.87,10.87,0,0,0-3.69-8.44,20,20,0,0,0-6.88-3.43.12.12,0,0,1,0-.24C22.41,4,26.65,6.33,30,9.63a12.42,12.42,0,0,1,3,4.63,10.87,10.87,0,0,1,.64,3.08c0,.32,0,.63,0,.95-.17,3.39-2.13,5.79-3.07,7.15-5,7.81,2.12,13.3,3.07,14a0,0,0,0,1,0,.06A.05.05,0,0,1,33.66,39.5Z"/></svg>