<svg id="Layer_1" data-name="Layer 1" xmlns="http://www.w3.org/2000/svg" viewBox="0 0 157 55"><defs><style>.cls-1{fill:#3056d3;}.cls-2{fill:#fff;}</style></defs><title>logoRIVER</title><path class="cls-1" d="M20,47A20,20,0,1,0,0,27,20,20,0,0,0,20,47Z"/><path class="cls-2" d="M21,42.91l-3-3h6.86l-3,3A.63.63,0,0,1,21,42.91Z"/><path class="cls-2" d="M26.88,37.9H16.11a.24.24,0,0,1-.16,0h0a7.63,7.63,0,0,1-2.84-6.17c.36-3,2.56-4.39,4.42-5.79A10.27,10.27,0,0,0,20.12,23a5.77,5.77,0,0,0,1-3,8.16,8.16,0,0,0-2.77-6.34,15.2,15.2,0,0,0-5.17-2.58.09.09,0,0,1-.06-.11.08.08,0,0,1,.09-.06c5.25.35,8.43,2.08,11,4.56A9.38,9.38,0,0,1,26.42,19a7.63,7.63,0,0,1,.48,2.31q0,.36,0,.72a10.13,10.13,0,0,1-2.3,5.37c-3.73,5.86,1.59,10,2.3,10.5,0,0,0,0,0,0Z"/><path class="cls-1" d="M60.68,30.3h-4v9H51.56V14.67h9.17q4.37,0,6.73,2a6.68,6.68,0,0,1,2.38,5.5,7.6,7.6,0,0,1-1.1,4.21A7.31,7.31,0,0,1,65.43,29l5.34,10.08v.24H65.31Zm-4-4.11h4.11a4.15,4.15,0,0,0,3-1,3.47,3.47,0,0,0,1.05-2.68,3.74,3.74,0,0,0-1-2.75,4.12,4.12,0,0,0-3-1H56.64Z"/><path class="cls-1" d="M79.1,39.33H74V14.67H79.1Z"/><path class="cls-1" d="M92.91,33.22,98.5,14.67h5.66L95.58,39.33H90.27L81.72,14.67h5.64Z"/><path class="cls-1" d="M121.32,28.64h-9.76v6.6H123v4.09H106.48V14.67H123v4.12H111.56v5.87h9.76Z"/><path class="cls-1" d="M135.11,30.3h-4v9H126V14.67h9.17q4.36,0,6.73,2a6.68,6.68,0,0,1,2.38,5.5,7.6,7.6,0,0,1-1.1,4.21A7.31,7.31,0,0,1,139.86,29l5.34,10.08v.24h-5.46Zm-4-4.11h4.11a4.15,4.15,0,0,0,3-1,3.47,3.47,0,0,0,1.05-2.68,3.74,3.74,0,0,0-1-2.75,4.12,4.12,0,0,0-3-1h-4.09Z"/><path class="cls-1" d="M109.4,48.45a5.1,5.1,0,0,1-2-1,1.86,1.86,0,0,1-.63-1.44,2,2,0,0,1,.77-1.6,3.1,3.1,0,0,1,2-.63,3.32,3.32,0,0,1,1.51.33,2.39,2.39,0,0,1,1,.9,2.3,2.3,0,0,1,.36,1.25h-1.09a1.49,1.49,0,0,0-.47-1.17,1.94,1.94,0,0,0-1.34-.42,2,2,0,0,0-1.24.35,1.17,1.17,0,0,0-.45,1,1.05,1.05,0,0,0,.43.85,4.08,4.08,0,0,0,1.45.63,6.54,6.54,0,0,1,1.59.63,2.41,2.41,0,0,1,.86.81,2,2,0,0,1,.28,1.09,1.91,1.91,0,0,1-.78,1.59,3.32,3.32,0,0,1-2.08.6,3.82,3.82,0,0,1-1.58-.32,2.65,2.65,0,0,1-1.12-.89,2.11,2.11,0,0,1-.4-1.27h1.09a1.41,1.41,0,0,0,.55,1.17,2.27,2.27,0,0,0,1.46.43,2.13,2.13,0,0,0,1.31-.35,1.22,1.22,0,0,0,0-1.88A4.74,4.74,0,0,0,109.4,48.45Z"/><path class="cls-1" d="M119.5,44.79h-2.64V52.1h-1.08V44.79h-2.63V43.9h6.35Z"/><path class="cls-1" d="M126.48,43.9v5.58a2.59,2.59,0,0,1-.73,1.9,2.92,2.92,0,0,1-2,.82h-.29a3.08,3.08,0,0,1-2.14-.72,2.54,2.54,0,0,1-.81-2V43.9h1.07v5.55a1.89,1.89,0,1,0,3.78,0V43.9Z"/><path class="cls-1" d="M128.19,52.1V43.9h2.31a3.7,3.7,0,0,1,1.9.48,3.16,3.16,0,0,1,1.27,1.34,4.56,4.56,0,0,1,.45,2v.53a4.37,4.37,0,0,1-.45,2,3.16,3.16,0,0,1-1.27,1.34,3.82,3.82,0,0,1-1.94.48Zm1.08-7.31v6.43h1.14a2.49,2.49,0,0,0,2-.78,3.23,3.23,0,0,0,.69-2.21v-.48a3.23,3.23,0,0,0-.66-2.17,2.33,2.33,0,0,0-1.86-.79Z"/><path class="cls-1" d="M136.91,52.1h-1.08V43.9h1.08Z"/><path class="cls-1" d="M145.2,48.27a5.08,5.08,0,0,1-.4,2.1,3.07,3.07,0,0,1-1.15,1.37,3.4,3.4,0,0,1-3.45,0A3.19,3.19,0,0,1,139,50.38a4.86,4.86,0,0,1-.42-2v-.59a4.9,4.9,0,0,1,.41-2.09,3.08,3.08,0,0,1,1.16-1.39,3.11,3.11,0,0,1,1.72-.48,3.24,3.24,0,0,1,1.74.47,3.11,3.11,0,0,1,1.16,1.38,5.16,5.16,0,0,1,.4,2.11Zm-1.08-.53a3.69,3.69,0,0,0-.58-2.24,2.08,2.08,0,0,0-3.25,0,3.53,3.53,0,0,0-.61,2.16v.61a3.66,3.66,0,0,0,.6,2.22,1.91,1.91,0,0,0,1.63.81,1.94,1.94,0,0,0,1.63-.77,3.58,3.58,0,0,0,.58-2.18Z"/></svg>